<svg xmlns="http://www.w3.org/2000/svg" viewBox="0 0 560.97 150.44"><title>logo1Fichier 3</title><g id="Calque_2" data-name="Calque 2"><g id="Calque_1-2" data-name="Calque 1"><path d="M0,131.68l19.76-23.79c9.28,7.46,21,12.7,30.65,12.7,10.49,0,14.93-3.43,14.93-9.27,0-6.25-6.66-8.27-17.75-12.71L31.26,91.76C17.14,86.11,4.84,74.21,4.84,55.25c0-22.38,20.17-40.73,48.8-40.73,14.92,0,31.46,5.65,43.56,17.54L79.86,53.84C71,47.59,63.32,44.37,53.64,44.37c-8.47,0-13.71,3-13.71,8.87,0,6.25,7.46,8.47,19.36,13.11L75.22,72.6c16.33,6.45,25.61,17.74,25.61,35.89,0,22.19-18.55,42-51.22,42C33.07,150.44,14.12,144.39,0,131.68Z"/><path d="M119,7.66h34.69V40.33L152,57.67c6.86-6,16.54-12.9,30.25-12.9,22.18,0,31.46,16.13,31.46,41.14V148H179.07V90.34c0-12.9-3.23-16.13-10.09-16.13-6.45,0-10.08,2.82-15.32,7.66V148H119Z"/><path d="M231.08,97.6c0-33.47,24.2-52.83,50-52.83s50,19.36,50,52.83-24.2,52.84-50,52.84S231.08,131.08,231.08,97.6Zm64.53,0c0-15.32-4-25-14.52-25s-14.52,9.68-14.52,25,4,25,14.52,25S295.61,112.93,295.61,97.6Z"/><path d="M349.24,47.19h28.24l2.41,12.3h.81c8.07-7.86,16.54-14.72,30.25-14.72s22.39,5.64,27.83,16.13c8.27-8.47,17.34-16.13,31.06-16.13,22.18,0,31.86,16.13,31.86,41.14V148H467V90.34c0-12.9-3.22-16.13-10.08-16.13-4,0-8.87,2.42-14.12,7.66V148H408.13V90.34c0-12.9-3.23-16.13-10.08-16.13-4,0-8.88,2.42-14.12,7.66V148H349.24Z"/><path d="M522.25,17.34C522.25,7.26,530.32,0,541.61,0S561,7.26,561,17.34s-8.07,17.35-19.36,17.35S522.25,27.43,522.25,17.34Zm2,29.85H559V148H524.27Z"/></g></g></svg>