<svg height="512pt" viewBox="0 0 512 512" width="512pt" xmlns="http://www.w3.org/2000/svg"><path d="m300 302c-49.625 0-90-40.375-90-90s40.375-90 90-90 90 40.375 90 90-40.375 90-90 90zm0 0" fill="#ffda2d"/><path d="m300 122v180c49.625 0 90-40.375 90-90s-40.375-90-90-90zm0 0" fill="#fdbf00"/><path d="m420 152c-33.085938 0-60-26.914062-60-60s26.914062-60 60-60 60 26.914062 60 60-26.914062 60-60 60zm0 0" fill="#ffda2d"/><path d="m420 32v120c33.085938 0 60-26.914062 60-60s-26.914062-60-60-60zm0 0" fill="#fdbf00"/><path d="m285 90c-24.8125 0-45-20.1875-45-45s20.1875-45 45-45 45 20.1875 45 45-20.1875 45-45 45zm0 0" fill="#ffda2d"/><path d="m285 0v90c24.8125 0 45-20.1875 45-45s-20.1875-45-45-45zm0 0" fill="#fdbf00"/><path d="m285 182h30v60h-30zm0 0" fill="#fdbf00"/><path d="m300 182h15v60h-15zm0 0" fill="#ff9100"/><path d="m512 346.980469-132.011719 165.019531h-379.988281v-150h19.769531c29.191407 0 55.339844-14.480469 75.152344-35.910156 13.707031-14.808594 33.308594-24.089844 55.078125-24.089844 24.539062 0 46.320312 11.78125 60.011719 30h74.988281c5.179688 0 10.199219.660156 15 1.890625 25.878906 6.660156 45 30.148437 45 58.109375h-130v30h143.621094l77.488281-81.398438c21.519531-22.621093 58.449219-19.511718 75.890625 6.378907zm0 0" fill="#ffbfab"/><g fill="#ffa78f"><path d="m345 392h-45v-58.109375c25.878906 6.660156 45 30.148437 45 58.109375zm0 0"/><path d="m512 346.980469-132.011719 165.019531h-79.988281v-90h58.621094l77.488281-81.398438c21.519531-22.621093 58.449219-19.511718 75.890625 6.378907zm0 0"/></g></svg>