<?xml version="1.0" encoding="utf-8"?>
<!-- Generator: Adobe Illustrator 23.1.1, SVG Export Plug-In . SVG Version: 6.00 Build 0)  -->
<svg version="1.1" id="Capa_1" xmlns="http://www.w3.org/2000/svg" xmlns:xlink="http://www.w3.org/1999/xlink" x="0px" y="0px"
	 viewBox="0 0 58 58" style="enable-background:new 0 0 58 58;" xml:space="preserve">
<style type="text/css">
	.st0{fill:#FAC176;}
	.st1{fill:#2C91D0;}
	.st2{fill:#E2AC69;}
	.st3{fill:#E4AF18;}
	.st4{fill:#FCC62D;}
	.st5{fill:#21D192;}
</style>
<g id="XMLID_76_">
	<path id="XMLID_112_" class="st0" d="M57.6,35.6c-1.3-1.7-2.3-2.2-6.6,0.1L42.3,41c-1,0.5-2.6,0.8-4.3,0.9c0,0,0,0,0,0.1
		c0,0.6-0.4,1-1,1H20c-3,0-3,1.5-3,2c0,0.6-0.4,1-1,1c-0.6,0-1-0.4-1-1c0-2.5,1.9-4,5-4h14.2c0.5-0.6,0.6-1.4-0.3-2.7
		c-1.4-2.1-3.8-3.3-6.4-3.3h-3.9c-2.3,0-4.5-0.7-6.3-2C13.1,29.7,5,30,5,30v24h14c2,0,4-0.2,6-0.5l13-2c0.4,0,0.9-0.1,1.3-0.1
		c0,0,0,0,0,0c1.1-0.1,2-0.7,2.8-1.4l15.2-11.8C58.1,37.5,58.2,36.4,57.6,35.6"/>
	<path id="XMLID_111_" class="st1" d="M30.7,42c-0.4,0-0.7,0-1,0C29.7,42,30.1,42,30.7,42"/>
	<path id="XMLID_110_" class="st2" d="M15,45c0,0.6,0.4,1,1,1c0.6,0,1-0.4,1-1c0-0.5,0-2,3-2h17c0.6,0,1-0.4,1-1c0,0,0,0,0-0.1
		c-2.5,0.2-5.3,0.1-7.3,0.1c-0.6,0-1,0-1,0c0.3,0,0.6,0,1,0c1.1,0,2.8-0.2,3.5-1H20C16.9,41,15,42.5,15,45"/>
	<path id="XMLID_109_" class="st3" d="M49,9c0,4.4-3.6,8-8,8s-8-3.6-8-8s3.6-8,8-8S49,4.6,49,9"/>
	<path id="XMLID_74_" class="st3" d="M21.8,34.8c0.6,0.1,1.3,0.2,1.9,0.2h3.9c0.6,0,1.3,0.1,1.9,0.2c2.7-1.3,4.5-4,4.5-7.2
		c0-4.4-3.6-8-8-8c-4.4,0-8,3.6-8,8C18,30.9,19.5,33.4,21.8,34.8"/>
	<path id="XMLID_73_" class="st4" d="M30,28c0,2.2-1.8,4-4,4s-4-1.8-4-4s1.8-4,4-4S30,25.8,30,28"/>
	<path id="XMLID_72_" class="st4" d="M45,9c0,2.2-1.8,4-4,4s-4-1.8-4-4s1.8-4,4-4S45,6.8,45,9"/>
	<rect id="XMLID_75_" y="27" class="st5" width="5" height="30"/>
</g>
</svg>
