<?xml version="1.0" encoding="utf-8"?>
<!-- Generator: Adobe Illustrator 23.1.1, SVG Export Plug-In . SVG Version: 6.00 Build 0)  -->
<svg version="1.1" id="Layer_1" xmlns="http://www.w3.org/2000/svg" xmlns:xlink="http://www.w3.org/1999/xlink" x="0px" y="0px"
	 viewBox="0 0 512 512" style="enable-background:new 0 0 512 512;" xml:space="preserve">
<style type="text/css">
	.st0{fill:#ECEEF1;}
	.st1{fill:#92EED2;}
	.st2{fill:#56595E;}
	.st3{fill:#E64C3C;}
	.st4{fill:#F0C919;}
	.st5{fill:#24AE5F;}
	.st6{fill:#BDC3C7;}
	.st7{fill:#12B87D;}
	.st8{fill:#21D192;}
	.st9{fill:#F9ECB0;}
	.st10{fill:#F3D55B;}
	.st11{fill:#D7875E;}
	.st12{fill:#84D1C4;}
</style>
<g>
	<path id="Shape" class="st0" d="M512,53v423.7c0,19.5-15.8,35.3-35.3,35.3H35.3C15.8,512,0,496.2,0,476.7V53H512z"/>
	<path class="st1" d="M512,53v423.7c0,19.5-15.8,35.3-35.3,35.3H35.3C15.8,512,0,496.2,0,476.7V53H512z"/>
	<path class="st2" d="M512,35.3v35.3H0V35.3C0,15.8,15.8,0,35.3,0h441.4C496.2,0,512,15.8,512,35.3z"/>
	<path class="st3" d="M35.5,44.1c-4.9,0-8.8-4-8.8-8.8s4-8.8,8.8-8.8s8.8,4,8.8,8.8S40.4,44.1,35.5,44.1z"/>
	<path class="st4" d="M70.8,44.1c-4.9,0-8.8-4-8.8-8.8s4-8.8,8.8-8.8c4.9,0,8.8,4,8.8,8.8S75.7,44.1,70.8,44.1z"/>
	<path class="st5" d="M106.1,44.1c-4.9,0-8.8-4-8.8-8.8s4-8.8,8.8-8.8s8.8,4,8.8,8.8S111,44.1,106.1,44.1z"/>
	<path class="st6" d="M467.9,53c-4.9,0-8.8-4-8.8-8.8V26.5c0-4.9,4-8.8,8.8-8.8s8.8,4,8.8,8.8v17.7C476.7,49,472.7,53,467.9,53z"/>
	<path class="st6" d="M459,35.3h17.7"/>
	<path class="st6" d="M476.7,44.1H459c-4.9,0-8.8-4-8.8-8.8s4-8.8,8.8-8.8h17.7c4.9,0,8.8,4,8.8,8.8S481.6,44.1,476.7,44.1z"/>
	<path class="st6" d="M406.1,35.3h17.7"/>
	<path class="st6" d="M423.7,44.1h-17.7c-4.9,0-8.8-4-8.8-8.8s4-8.8,8.8-8.8h17.7c4.9,0,8.8,4,8.8,8.8S428.6,44.1,423.7,44.1z"/>
	<path id="Rectangle-path" class="st7" d="M53,114.8h247.2c4.9,0,8.8,4,8.8,8.8v35.3c0,4.9-4,8.8-8.8,8.8H53c-4.9,0-8.8-4-8.8-8.8
		v-35.3C44.1,118.7,48.1,114.8,53,114.8z"/>
	<path class="st8" d="M309,211.9H53c-4.9,0-8.8-4-8.8-8.8s4-8.8,8.8-8.8h256c4.9,0,8.8,4,8.8,8.8S313.8,211.9,309,211.9z"/>
	<path class="st8" d="M282.5,247.2H53c-4.9,0-8.8-4-8.8-8.8c0-4.9,4-8.8,8.8-8.8h229.5c4.9,0,8.8,4,8.8,8.8
		C291.3,243.2,287.4,247.2,282.5,247.2z"/>
	<path class="st8" d="M264.8,282.5H53c-4.9,0-8.8-4-8.8-8.8s4-8.8,8.8-8.8h211.9c4.9,0,8.8,4,8.8,8.8S269.7,282.5,264.8,282.5z"/>
	<path class="st8" d="M247.2,317.8H53c-4.9,0-8.8-4-8.8-8.8s4-8.8,8.8-8.8h194.2c4.9,0,8.8,4,8.8,8.8S252,317.8,247.2,317.8z"/>
	<path class="st8" d="M283.6,353.1H53c-4.9,0-8.8,4-8.8,8.8v105.9c0,4.9,4,8.8,8.8,8.8H459c4.9,0,8.8-4,8.8-8.8V361.9
		c0-4.9-4-8.8-8.8-8.8h-95.5"/>
	<path class="st9" d="M340.8,395.9l-55.6,47.2c-2.8,2.3-6.6,2.7-9.8,1.1s-5-5.2-4.6-8.7l7.7-72.6
		C314.1,368.9,313.4,367.2,340.8,395.9L340.8,395.9z"/>
	<path class="st10" d="M404.7,200l-90.8,171.6c-9.9-5.2-16.9-5.6-35.4-8.7l95.1-179.5L404.7,200z"/>
	<path class="st4" d="M435.8,216.5l-95,179.4c-7.6-9.6-16.7-17.8-27-24.3L404.7,200L435.8,216.5z"/>
	<path class="st11" d="M464.8,161.9l-12.4,23.4l-62.4-33l12.4-23.4c3.3-6.2,8.9-10.9,15.6-13c6.7-2.1,14-1.4,20.2,1.9l15.5,8.2
		c6.2,3.3,10.9,8.9,13,15.6C468.8,148.4,468.1,155.7,464.8,161.9z"/>
	<path class="st6" d="M452.4,185.3l-16.6,31.2c-37.4-19.8-23.1-12.2-62.3-33.1l16.5-31.2L452.4,185.3z"/>
	<g>
		<path class="st12" d="M88.3,450.2H70.6c-4.9,0-8.8-4-8.8-8.8s4-8.8,8.8-8.8h17.7c4.9,0,8.8,4,8.8,8.8S93.2,450.2,88.3,450.2z"/>
		<path class="st12" d="M141.2,450.2h-17.7c-4.9,0-8.8-4-8.8-8.8s4-8.8,8.8-8.8h17.7c4.9,0,8.8,4,8.8,8.8S146.1,450.2,141.2,450.2z"
			/>
		<path class="st12" d="M194.2,450.2h-17.7c-4.9,0-8.8-4-8.8-8.8s4-8.8,8.8-8.8h17.7c4.9,0,8.8,4,8.8,8.8S199.1,450.2,194.2,450.2z"
			/>
		<path class="st12" d="M238.3,450.2h-8.8c-4.9,0-8.8-4-8.8-8.8s4-8.8,8.8-8.8h8.8c4.9,0,8.8,4,8.8,8.8S243.2,450.2,238.3,450.2z"/>
		<path class="st12" d="M335.4,450.2h-8.8c-4.9,0-8.8-4-8.8-8.8s4-8.8,8.8-8.8h8.8c4.9,0,8.8,4,8.8,8.8S340.3,450.2,335.4,450.2z"/>
		<path class="st12" d="M388.4,450.2h-17.7c-4.9,0-8.8-4-8.8-8.8s4-8.8,8.8-8.8h17.7c4.9,0,8.8,4,8.8,8.8S393.3,450.2,388.4,450.2z"
			/>
		<path class="st12" d="M441.4,450.2h-17.7c-4.9,0-8.8-4-8.8-8.8s4-8.8,8.8-8.8h17.7c4.9,0,8.8,4,8.8,8.8S446.3,450.2,441.4,450.2z"
			/>
	</g>
</g>
</svg>
