<?xml version="1.0"?>
<svg xmlns="http://www.w3.org/2000/svg" height="512px" viewBox="0 0 60 60" width="512px" class=""><g><g id="023---Sign-Form" fill="none"><g id="Icons" transform="translate(1 1)"><path id="Shape" d="m58 8v46c0 2.209139-1.790861 4-4 4h-50c-2.209139 0-4-1.790861-4-4v-46z" fill="#4527a0" data-original="#4527A0" class="" data-old_color="#4527a0" style="fill:#8A888F"/><path id="Shape" d="m55 8v46c0 2.209139-1.790861 4-4 4h-47c-2.209139 0-4-1.790861-4-4v-46z" fill="#673ab7" data-original="#673AB7" class="" data-old_color="#673ab7" style="fill:#E7E6E9"/><path id="Shape" d="m58 4v4h-58v-4c0-2.209139 1.790861-4 4-4h50c2.209139 0 4 1.790861 4 4z" fill="#ad1457" data-original="#AD1457" class="" data-old_color="#ad1457" style="fill:#403F3F"/><path id="Shape" d="m55 4v4h-55v-4c0-2.209139 1.790861-4 4-4h47c2.209139 0 4 1.790861 4 4z" fill="#e91e63" data-original="#E91E63" class="" data-old_color="#e91e63" style="fill:#545152"/><rect id="Rectangle-path" fill="#02a9f4" height="6" rx="1" width="30" x="5" y="13" data-original="#02A9F4" class="" data-old_color="#02a9f4" style="fill:#FFFFFF"/><path id="Shape" d="m53 41v12c0 .5522847-.4477153 1-1 1h-46c-.55228475 0-1-.4477153-1-1v-12c0-.5522847.44771525-1 1-1h26.13l-.59 1.11-.87 8.22c-.0434776.4063507.1646778.7982674.5256947.9897825.3610168.191515.80224.1440856 1.1143053-.1197825l6.3-5.35 2.57-4.85h10.82c.5522847 0 1 .4477153 1 1z" fill="#0377bc" data-original="#0377BC" class="active-path" data-old_color="#0377bc" style="fill:#C5CED3"/><path id="Shape" d="m50 41v12c0 .5522847-.4477153 1-1 1h-43c-.55228475 0-1-.4477153-1-1v-12c0-.5522847.44771525-1 1-1h26.13l-.59 1.11-.87 8.22c-.0434776.4063507.1646778.7982674.5256947.9897825.3610168.191515.80224.1440856 1.1143053-.1197825l6.3-5.35 2.57-4.85h7.82c.5522847 0 1 .4477153 1 1z" fill="#02a9f4" data-original="#02A9F4" class="" data-old_color="#02a9f4" style="fill:#FFFFFF"/><path id="Shape" d="m38.61 44.85-6.3 5.35c-.3120653.2638681-.7532885.3112975-1.1143053.1197825-.3610169-.1915151-.5691723-.5834318-.5256947-.9897825l.87-8.22c4.036.679 3.96.49 7.07 3.74z" fill="#ffeb3a" data-original="#FFEB3A" class=""/><path id="Shape" d="m45.84 22.66-10.29 19.44c-1.126-.592-1.911-.637-4.01-.99l10.77-20.33z" fill="#ffdc00" data-original="#FFDC00" class=""/><path id="Shape" d="m49.37 24.53-10.76 20.32c-.8565865-1.0836416-1.8913619-2.0135868-3.06-2.75l10.29-19.44z" fill="#ffdc00" data-original="#FFDC00" class=""/><path id="Shape" d="m52.65 18.34-1.4 2.65-7.07-3.74 1.4-2.65c.3718732-.7049033 1.0089506-1.2328641 1.7706476-1.4673767.7616969-.2345126 1.5854038-.1563007 2.2893524.2173767l1.76.93c.7049033.3718732 1.2328641 1.0089506 1.4673767 1.7706476.2345126.7616969.1563007 1.5854038-.2173767 2.2893524z" fill="#ef314c" data-original="#EF314C" class=""/><path id="Shape" d="m51.25 20.99-1.88 3.54c-4.237-2.245-2.615-1.383-7.06-3.75l1.87-3.53z" fill="#7f8e94" data-original="#7F8E94" class=""/></g><g id="Layer_2" fill="#000"><path id="Shape" d="m55 0h-50c-2.76005315.00330612-4.99669388 2.23994685-5 5v50c.00330612 2.7600532 2.23994685 4.9966939 5 5h50c2.7600532-.0033061 4.9966939-2.2399468 5-5v-50c-.0033061-2.76005315-2.2399468-4.99669388-5-5zm3 55c0 1.6568542-1.3431458 3-3 3h-50c-1.65685425 0-3-1.3431458-3-3v-45h56zm0-47h-56v-3c0-1.65685425 1.34314575-3 3-3h50c1.6568542 0 3 1.34314575 3 3z" data-original="#000" class="" style="fill:#464141" data-old_color="#000"/><path id="Shape" d="m7 21h28c1.1045695 0 2-.8954305 2-2v-4c0-1.1045695-.8954305-2-2-2h-28c-1.1045695 0-2 .8954305-2 2v4c0 1.1045695.8954305 2 2 2zm0-6h28v4h-28z" data-original="#000" class="" style="fill:#464141" data-old_color="#000"/><path id="Shape" d="m37 24c0-.5522847-.4477153-1-1-1h-29c-.55228475 0-1 .4477153-1 1s.44771525 1 1 1h29c.5522847 0 1-.4477153 1-1z" data-original="#000" class="" style="fill:#464141" data-old_color="#000"/><path id="Shape" d="m34 28c0-.5522847-.4477153-1-1-1h-26c-.55228475 0-1 .4477153-1 1s.44771525 1 1 1h26c.5522847 0 1-.4477153 1-1z" data-original="#000" class="" style="fill:#464141" data-old_color="#000"/><path id="Shape" d="m32 32c0-.5522847-.4477153-1-1-1h-24c-.55228475 0-1 .4477153-1 1s.44771525 1 1 1h24c.5522847 0 1-.4477153 1-1z" data-original="#000" class="" style="fill:#464141" data-old_color="#000"/><path id="Shape" d="m7 35c-.55228475 0-1 .4477153-1 1s.44771525 1 1 1h22c.5522847 0 1-.4477153 1-1s-.4477153-1-1-1z" data-original="#000" class="" style="fill:#464141" data-old_color="#000"/><path id="Shape" d="m7 56h46c1.1045695 0 2-.8954305 2-2v-12c0-1.1045695-.8954305-2-2-2h-9.155c14.94-28.222 9.138-17.262 10.69-20.192 1.0308842-1.9531607.2865621-4.3722074-1.664-5.408l-1.771-.935c-1.9509174-1.0290268-4.3666408-.2846261-5.4 1.664l-13.17 24.871h-25.53c-1.1045695 0-2 .8954305-2 2v12c0 1.1045695.8954305 2 2 2zm32.38-11.84c-.4526132-.5235599-.9620815-.9951283-1.519-1.406l9.4-17.747 1.768.935c-3.364 6.345 2.483-4.698-9.649 18.218zm8.084-28.095c.5166796-.9743131 1.7245413-1.3465134 2.7-.832l1.768.936c.9743131.5166796 1.3465134 1.7245413.832 2.7l-.936 1.768-5.3-2.807zm-1.871 3.535 5.3 2.807-.936 1.768-5.3-2.807zm-1.872 3.535 1.768.936-9.395 17.747c-.6526461-.2293868-1.3288167-.3853487-2.016-.465zm-10.295 20.137c.9209331.0732259 1.8207225.3141864 2.655.711.7963349.4661886 1.5006079 1.0742087 2.078 1.794l-5.5 4.663zm-26.426-1.272h24.552c-.372 3.47.584-5.48-.88 8.229-.086814.8133315.330381 1.597556 1.0533732 1.9800834.7229921.3825274 1.6060499.2862527 2.2296268-.2430834 4.985-4.228 6.434-5.47 6.325-5.373.154-.137-.1.337 2.506-4.593h10.214v12h-46z" data-original="#000" class="" style="fill:#464141" data-old_color="#000"/><path id="Shape" d="m11 50h-2c-.55228475 0-1 .4477153-1 1s.44771525 1 1 1h2c.5522847 0 1-.4477153 1-1s-.4477153-1-1-1z" data-original="#000" class="" style="fill:#464141" data-old_color="#000"/><path id="Shape" d="m17 50h-2c-.5522847 0-1 .4477153-1 1s.4477153 1 1 1h2c.5522847 0 1-.4477153 1-1s-.4477153-1-1-1z" data-original="#000" class="" style="fill:#464141" data-old_color="#000"/><path id="Shape" d="m23 50h-2c-.5522847 0-1 .4477153-1 1s.4477153 1 1 1h2c.5522847 0 1-.4477153 1-1s-.4477153-1-1-1z" data-original="#000" class="" style="fill:#464141" data-old_color="#000"/><path id="Shape" d="m28 50h-1c-.5522847 0-1 .4477153-1 1s.4477153 1 1 1h1c.5522847 0 1-.4477153 1-1s-.4477153-1-1-1z" data-original="#000" class="" style="fill:#464141" data-old_color="#000"/><path id="Shape" d="m39 50h-1c-.5522847 0-1 .4477153-1 1s.4477153 1 1 1h1c.5522847 0 1-.4477153 1-1s-.4477153-1-1-1z" data-original="#000" class="" style="fill:#464141" data-old_color="#000"/><path id="Shape" d="m45 50h-2c-.5522847 0-1 .4477153-1 1s.4477153 1 1 1h2c.5522847 0 1-.4477153 1-1s-.4477153-1-1-1z" data-original="#000" class="" style="fill:#464141" data-old_color="#000"/><path id="Shape" d="m51 50h-2c-.5522847 0-1 .4477153-1 1s.4477153 1 1 1h2c.5522847 0 1-.4477153 1-1s-.4477153-1-1-1z" data-original="#000" class="" style="fill:#464141" data-old_color="#000"/><path id="Shape" d="m5.01 4c-.55094938.00550977-.99364192.45563532-.98997789 1.00660006s.45230402.99516274 1.00327794.99334449c.55097393-.00181825.9966724-.44896763.99669995-.99994455-.00439867-.55435702-.45562666-1.0011174-1.01-1z" data-original="#000" class="" style="fill:#464141" data-old_color="#000"/><path id="Shape" d="m9.01 4c-.55094938.00550977-.99364192.45563532-.98997789 1.00660006s.45230402.99516274 1.00327794.99334449c.55097393-.00181825.99667245-.44896763.99669995-.99994455-.0043987-.55435702-.45562666-1.0011174-1.01-1z" data-original="#000" class="" style="fill:#464141" data-old_color="#000"/><path id="Shape" d="m13.01 4c-.5509494.00550977-.9936419.45563532-.9899779 1.00660006s.452304.99516274 1.003278.99334449c.5509739-.00181825.9966724-.44896763.9966999-.99994455-.0043987-.55435702-.4556267-1.0011174-1.01-1z" data-original="#000" class="" style="fill:#464141" data-old_color="#000"/><path id="Shape" d="m55 4c0-.55228475-.4477153-1-1-1s-1 .44771525-1 1c-.5522847 0-1 .44771525-1 1s.4477153 1 1 1c0 .55228475.4477153 1 1 1s1-.44771525 1-1c.5522847 0 1-.44771525 1-1s-.4477153-1-1-1z" data-original="#000" class="" style="fill:#464141" data-old_color="#000"/><path id="Shape" d="m49 4h-2c-.5522847 0-1 .44771525-1 1s.4477153 1 1 1h2c.5522847 0 1-.44771525 1-1s-.4477153-1-1-1z" data-original="#000" class="" style="fill:#464141" data-old_color="#000"/></g></g></g> </svg>
