<?xml version="1.0" encoding="utf-8"?>
<!-- Generator: Adobe Illustrator 23.1.1, SVG Export Plug-In . SVG Version: 6.00 Build 0)  -->
<svg version="1.1" id="Layer_1" xmlns="http://www.w3.org/2000/svg" xmlns:xlink="http://www.w3.org/1999/xlink" x="0px" y="0px"
	 viewBox="0 0 512 512" style="enable-background:new 0 0 512 512;" xml:space="preserve">
<style type="text/css">
	.st0{fill:#ECF0F1;}
	.st1{fill:#FFFFFF;stroke:#000000;stroke-width:0.25;stroke-miterlimit:10;}
	.st2{fill:#666666;}
	.st3{fill:#21D192;}
	.st4{fill:#FFFFFF;}
	.st5{fill:#FBB429;}
	.st6{fill:#FF5B61;}
	.st7{fill:#F9FBFB;}
	.st8{fill:#0E7886;}
</style>
<path class="st0" d="M223.1,380.3l-9.6,37.8l-32.4,27.1v5.8H256h74.9v-5.8l-32.4-27.1l-9.6-37.8l-32.9-0.5L223.1,380.3z"/>
<path class="st1" d="M181.1,445.2v5.8H256h74.9v-5.8H181.1z"/>
<path class="st2" d="M88.9,119.1H423c11,0,20,9,20,20v205.8H69V139C69,128.1,78,119.1,88.9,119.1L88.9,119.1z"/>
<path class="st3" d="M82.5,331.3h347V139c0-3.5-2.9-6.4-6.4-6.4H88.9c-3.5,0-6.4,2.9-6.4,6.4V331.3L82.5,331.3z"/>
<g>
	<path class="st1" d="M443,344.9v21.8c0,11-9.9,20-22,20H91c-12.1,0-22-9-22-20v-21.8H443z"/>
	<path class="st4" d="M257.2,170.1c20.1,0,38.4,8.2,51.6,21.4s21.4,31.4,21.4,51.6c0,20.1-8.2,38.4-21.4,51.6
		c-13.2,13.2-31.4,21.4-51.6,21.4c-20.1,0-38.4-8.2-51.6-21.4c-13.2-13.2-21.4-31.4-21.4-51.6c0-20.1,8.2-38.4,21.4-51.6
		C218.8,178.3,237,170.1,257.2,170.1z M314.2,280.7L314.2,280.7c0.4,0.2,0.7,0.6,0.8,1c7.1-10.6,11.4-23.3,11.7-37h-27.6
		c-0.2,10-2.2,20-6,29.3C301.6,275.6,308.9,277.9,314.2,280.7z M313.6,283.8L313.6,283.8c-0.3,0-0.6,0-0.9-0.2
		c-5.2-2.8-12.4-5-20.8-6.5c-0.8,1.7-1.6,3.3-2.4,4.9c-6.6,12.2-16.4,22.9-29.6,30.5c18.2-0.7,34.5-8.3,46.6-20.3
		C309,289.6,311.4,286.8,313.6,283.8L313.6,283.8L313.6,283.8z M254.5,312.6L254.5,312.6c-13.2-7.6-23.1-18.3-29.6-30.5
		c-0.9-1.6-1.7-3.3-2.4-4.9c-8.4,1.5-15.6,3.7-20.8,6.5c-0.3,0.2-0.6,0.2-0.9,0.2c2.2,3,4.6,5.8,7.2,8.4
		C219.9,304.3,236.3,311.9,254.5,312.6L254.5,312.6z M199.3,281.7L199.3,281.7c0.1-0.4,0.4-0.8,0.8-1c5.3-2.8,12.6-5.1,21-6.7
		c-3.8-9.3-5.7-19.3-6-29.3h-27.6C187.9,258.4,192.2,271.1,199.3,281.7L199.3,281.7L199.3,281.7z M187.6,241.4L187.6,241.4h27.6
		c0.2-10.8,2.5-21.6,6.8-31.6c-8.7-1.6-16.3-3.9-21.8-6.8C192.5,213.9,187.9,227.1,187.6,241.4L187.6,241.4z M202.2,200.3
		L202.2,200.3c5.3,2.8,12.7,4.9,21.2,6.4c0.5-1.1,1.1-2.1,1.6-3.2c6.6-12,16.4-22.6,29.5-30.1c-18.2,0.7-34.5,8.3-46.5,20.3
		C205.9,195.9,203.9,198,202.2,200.3z M259.8,173.5L259.8,173.5c13.1,7.5,22.9,18,29.5,30.1c0.6,1.1,1.1,2.1,1.7,3.2
		c8.5-1.5,15.9-3.6,21.2-6.4c-1.8-2.3-3.7-4.5-5.8-6.5C294.4,181.8,278,174.1,259.8,173.5L259.8,173.5z M314.1,203L314.1,203
		c-5.4,2.9-13,5.2-21.8,6.8c4.3,10,6.6,20.8,6.8,31.6h27.6C326.4,227.1,321.8,213.9,314.1,203z M258.8,176.7L258.8,176.7v32.8
		c10-0.1,19.9-0.8,28.7-2.1c-0.4-0.7-0.8-1.5-1.1-2.2C280.2,193.8,271,183.8,258.8,176.7z M258.8,212.7L258.8,212.7v28.7h37.1
		c-0.2-10.6-2.5-21.2-6.8-31C279.7,211.9,269.3,212.7,258.8,212.7L258.8,212.7z M258.8,244.7L258.8,244.7V271
		c10.8,0.1,21.5,0.9,31.1,2.5c3.8-9.1,5.8-18.9,6-28.7L258.8,244.7L258.8,244.7z M258.8,274.3L258.8,274.3v35.1
		c12.3-7.3,21.5-17.4,27.7-28.9c0.7-1.3,1.4-2.6,2-4C279.4,275.1,269.1,274.3,258.8,274.3L258.8,274.3z M255.5,309.4L255.5,309.4
		v-35.1c-10.3,0.1-20.6,0.8-29.7,2.3c0.6,1.3,1.3,2.6,2,3.9C234,292,243.2,302.1,255.5,309.4z M255.5,271L255.5,271v-26.2h-37
		c0.2,9.8,2.2,19.6,6,28.7C234,271.9,244.7,271,255.5,271L255.5,271L255.5,271z M255.5,241.4L255.5,241.4v-28.7
		c-10.5-0.1-20.9-0.9-30.2-2.4c-4.4,9.8-6.7,20.4-6.8,31L255.5,241.4L255.5,241.4z M255.5,209.4L255.5,209.4v-32.8
		c-12.2,7.2-21.4,17.1-27.6,28.4c-0.4,0.7-0.8,1.4-1.1,2.2C235.6,208.6,245.5,209.4,255.5,209.4L255.5,209.4z"/>
</g>
<path class="st3" d="M460.1,308H475V169.4h-14.9V308z"/>
<g>
	<path class="st5" d="M467.6,337.5L475,308h-14.9L467.6,337.5z"/>
	<path class="st5" d="M463.2,155.9h8.8c2.4,0,4.4,2.3,4.4,5.2v64.4h-17.5v-64.4C458.8,158.2,460.8,155.9,463.2,155.9L463.2,155.9z"
		/>
</g>
<path class="st2" d="M467.3,339.6h0.6l2.5-13.2h-5.5L467.3,339.6L467.3,339.6z"/>
<path class="st6" d="M458.8,167l21.4,0.2h1.3v1.6v48v0.5l-0.2,0.4l-2,3.4c-1,1.6-3.2,0.4-2.2-1.8l1.8-3v-45.9l-20.1-0.2L458.8,167
	L458.8,167L458.8,167z"/>
<g>
	<path class="st0" d="M361.4,46.1l75.5,36.4c4,3,2.8,21.8,2.4,25.3c-0.5,3.5-2.9,2.3-5.5-0.5c-2.6-2.7,5.6-18.6-1.1-21.5l-83.4-36.2
		c0.8-1.5,2.1-3,3.5-3.5C354.9,45.5,357.2,45.4,361.4,46.1L361.4,46.1L361.4,46.1z"/>
	<path class="st0" d="M461.6,80.3l-82-17.4c-5,0-15.6,15.5-17.4,18.6s0.9,3.6,4.6,3s7-18.1,14.1-16.3L469,90.6
		c0.3-1.7,0.2-3.7-0.7-4.9C467.1,83.9,465.3,82.3,461.6,80.3L461.6,80.3z"/>
</g>
<path class="st7" d="M467.6,94.7c-0.8,1.5-1.7,3-2.5,4.5c-1.5,2.7-3,5.5-4.6,8.2c-6.3,11.4-28.6,6.7-36.8-0.1c-0.4-0.3-0.7-0.6-1-1
	c-2-2.2-3.2-5.4-3.9-8.2c-0.8-3.5-1.1-7.2-1.2-10.7c-0.1-2.2,0.1-4.7,0-7c0.1-0.3,0.2-0.7,0.3-1l14.9,6.5c6.7,2.9-1.5,18.8,1.1,21.5
	c2.6,2.7,5,4,5.5,0.5s1.6-22.3-2.4-25.3l-0.3-0.1l32.3,8.2C468.8,92,468.3,93.4,467.6,94.7L467.6,94.7z M422,71.9L422,71.9l39.5,8.4
	c-10.5-5.5-29.5-9.6-37.2-10.2C423.6,70.6,422.8,71.2,422,71.9z M347.9,53.8L347.9,53.8c-0.3,1.7-0.5,3.4-0.8,5
	c-0.5,3.1-1,6.2-1.4,9.3c-2,12.9,18.5,22.8,29.2,22.5c0.5,0,0.9-0.1,1.4-0.1c3-0.5,5.8-2.3,8.1-4.1c2.8-2.2,5.3-5,7.6-7.7
	c1.4-1.7,2.8-3.8,4.3-5.5c0.2-0.3,0.3-0.7,0.4-1l-15.7-4c-7.1-1.8-10.3,15.8-14.1,16.3c-3.7,0.6-6.4,0.1-4.6-3s12.3-18.6,17.4-18.6
	L380,63l-30.6-13.3C348.6,50.9,348.1,52.3,347.9,53.8L347.9,53.8z M397.8,63.7L397.8,63.7l-36.4-17.6c11.7,2.1,29.2,10.4,35.7,14.7
	C397.4,61.7,397.7,62.6,397.8,63.7z"/>
<path class="st8" d="M348,37.5c9.2,0.2,47.3,12.4,51.2,16.8c0.4,0.5,9,6.2,9,6.2l3.6,1.5l3.8,1c0,0,10.3,0.7,10.9,0.6
	c5.7-1.1,43.2,12.5,50.7,18c2.1,0.8,4.3,1.8,4.2,2.2c0.3,1-2.6,7.4-2.9,7.7c-0.2,0.1-1.3,0.1-2.9,0c-0.4,0.3-0.7,0.8-1.1,1.3
	c-1.5,2.5-7.5,13.4-9.6,17.1c-8.1,14.7-34,10.3-44.7,1.4c-9.7-8-7.7-27.6-8.1-31.3c-0.1-0.7,0-1.8,0.2-3.2c-1.4-1.7-3.3-3.4-4.5-3.4
	c-1-0.8-3.5-0.5-5.7-0.1c-0.6,1.2-1.3,2.1-1.8,2.6c-2.5,2.7-13,19.4-25.6,19.8c-14,0.5-37.1-11.9-34.5-28.5
	c0.7-4.2,2.6-16.5,2.9-19.4c0.1-0.7,0.1-1.3,0-1.8c-1.1-0.8-1.8-1.3-1.9-1.5c-0.1-0.3,1.5-7.2,2.4-7.8C344,36.4,346,36.9,348,37.5
	L348,37.5z M347.9,53.8L347.9,53.8c-0.3,1.7-0.5,3.4-0.8,5c-0.5,3.1-1,6.2-1.4,9.3c-2,12.9,18.5,22.8,29.2,22.5
	c0.5,0,0.9-0.1,1.4-0.1c3-0.5,5.8-2.3,8.1-4.1c2.8-2.2,5.3-5,7.6-7.7c1.4-1.7,2.8-3.8,4.3-5.5c2.5-5.4,2-9.6,0.9-12.3
	c-8.6-5.8-37.1-18.7-44.9-14.3C350.2,47.6,348.4,50.6,347.9,53.8L347.9,53.8L347.9,53.8z M467.6,94.7L467.6,94.7
	c1.6-2.9,1.9-6.4,1.1-8.4c-3.4-8.2-33.9-15.4-44.3-16.1c-2.5,1.5-5.5,4.5-6.8,10.3c0.1,2.2,0,4.7,0,7c0.1,3.6,0.4,7.3,1.2,10.7
	c0.7,2.9,1.9,6,3.9,8.2c0.3,0.3,0.6,0.7,1,1c8.2,6.8,30.5,11.5,36.8,0.1c1.5-2.8,3-5.5,4.6-8.2C465.9,97.7,466.7,96.2,467.6,94.7
	L467.6,94.7z"/>
</svg>
