<svg xmlns="http://www.w3.org/2000/svg" viewBox="0 0 48 48"><path fill="#c5cae9" d="M24 4A20 20 0 1 0 24 44A20 20 0 1 0 24 4Z"></path><path fill="#e8eaf6" d="M24 8A16 16 0 1 0 24 40A16 16 0 1 0 24 8Z"></path><path fill="#fff" d="M32.016 11.15c-.17 0-.343-.043-.501-.135-4.537-2.632-10.468-2.636-15.011-.011-.479.276-1.09.113-1.366-.365s-.113-1.09.365-1.366c5.152-2.978 11.87-2.973 17.016.013.478.277.64.889.363 1.367C32.696 10.972 32.36 11.15 32.016 11.15zM32.989 38.24c-.321 0-.636-.154-.829-.439-.31-.458-.19-1.079.267-1.389 2.175-1.474 3.933-3.511 5.082-5.891 1.146-2.375 1.648-5.01 1.454-7.623-.041-.551.372-1.03.923-1.071.536-.047 1.03.372 1.071.923.221 2.962-.348 5.95-1.647 8.64-1.302 2.698-3.294 5.007-5.761 6.678C33.377 38.185 33.182 38.24 32.989 38.24zM15.034 38.255c-.192 0-.387-.055-.559-.171-2.462-1.662-4.455-3.96-5.762-6.646-1.311-2.694-1.889-5.688-1.672-8.66.04-.551.512-.959 1.07-.925.551.041.965.52.925 1.07-.191 2.62.319 5.262 1.476 7.639 1.153 2.37 2.911 4.397 5.082 5.864.458.309.578.93.269 1.388C15.67 38.101 15.355 38.255 15.034 38.255z"></path><path fill="#80d8ff" d="M24 7.043c2.971 0 5.942.748 8.519 2.243.478.277.64.889.363 1.367-.186.32-.521.498-.866.498-.17 0-.343-.043-.501-.135-2.271-1.318-4.893-1.977-7.514-1.977-2.614 0-5.229.655-7.497 1.966-.158.091-.33.134-.5.134-.345 0-.681-.179-.866-.5-.276-.478-.113-1.09.365-1.366C18.075 7.786 21.038 7.043 24 7.043M24.001 4.043H24c-3.561 0-7.019.911-9.998 2.633-.925.535-1.587 1.398-1.862 2.43-.276 1.032-.133 2.11.401 3.035.713 1.232 2.04 1.998 3.463 1.998.7 0 1.391-.185 1.998-.535 1.773-1.025 3.847-1.566 5.999-1.565 2.159 0 4.236.544 6.008 1.572.609.354 1.303.54 2.007.54 1.422 0 2.748-.764 3.461-1.993.536-.923.681-2.001.406-3.034-.274-1.033-.935-1.898-1.859-2.434C31.039 4.958 27.573 4.043 24.001 4.043L24.001 4.043zM39.961 21.824c.518 0 .957.4.996.926.442 5.935-2.483 11.982-7.409 15.319-.172.116-.367.172-.56.172-.321 0-.636-.154-.829-.44-.207-.306-.222-.686-.072-.996.074-.153.188-.29.34-.392 4.343-2.941 6.925-8.281 6.535-13.514-.04-.552.372-1.031.923-1.072C39.91 21.825 39.936 21.824 39.961 21.824M39.961 18.824c-.099 0-.199.004-.299.011-2.196.164-3.852 2.085-3.691 4.282.308 4.142-1.792 8.485-5.226 10.811-.583.395-1.053.939-1.359 1.572-.618 1.28-.507 2.806.29 3.983.744 1.1 1.983 1.757 3.313 1.757.802 0 1.578-.238 2.243-.689 5.817-3.94 9.239-11.015 8.717-18.025C43.794 20.45 42.042 18.824 39.961 18.824L39.961 18.824zM8.038 21.851c.025 0 .049.001.074.003.369.027.676.251.827.561.075.153.111.327.098.51-.382 5.231 2.209 10.566 6.558 13.503.458.31.578.931.269 1.388-.193.286-.509.441-.83.441-.192 0-.387-.055-.559-.171-4.932-3.33-7.867-9.373-7.433-15.307C7.08 22.252 7.519 21.851 8.038 21.851M8.038 18.851L8.038 18.851c-2.085 0-3.837 1.629-3.988 3.709-.512 7.007 2.921 14.077 8.747 18.01.664.448 1.437.685 2.237.685 1.332 0 2.572-.659 3.316-1.762 1.232-1.826.751-4.316-1.074-5.551-3.442-2.325-5.55-6.664-5.248-10.8.051-.703-.084-1.408-.392-2.041-.622-1.278-1.889-2.137-3.306-2.24C8.233 18.854 8.135 18.851 8.038 18.851L8.038 18.851z"></path><path fill="#90a4ae" d="M24 12A12 12 0 1 0 24 36A12 12 0 1 0 24 12Z"></path><path fill="#fff" d="M17 18L21 18 23.621 25.75 26.375 17 31.375 17 26 31 21 31z"></path></svg>